<svg width="40" height="40" viewBox="0 0 40 40" fill="none" xmlns="http://www.w3.org/2000/svg">
<rect width="40" height="40" rx="20" fill="#12144E"/>
<path d="M27.2806 26.2193C27.3503 26.289 27.4056 26.3717 27.4433 26.4628C27.481 26.5538 27.5004 26.6514 27.5004 26.7499C27.5004 26.8485 27.481 26.9461 27.4433 27.0371C27.4056 27.1281 27.3503 27.2109 27.2806 27.2806C27.2109 27.3502 27.1282 27.4055 27.0372 27.4432C26.9461 27.4809 26.8485 27.5003 26.75 27.5003C26.6515 27.5003 26.5539 27.4809 26.4628 27.4432C26.3718 27.4055 26.2891 27.3502 26.2194 27.2806L20 21.0602L13.7806 27.2806C13.6399 27.4213 13.449 27.5003 13.25 27.5003C13.051 27.5003 12.8601 27.4213 12.7194 27.2806C12.5786 27.1398 12.4996 26.949 12.4996 26.7499C12.4996 26.5509 12.5786 26.36 12.7194 26.2193L18.9397 19.9999L12.7194 13.7806C12.5786 13.6398 12.4996 13.449 12.4996 13.2499C12.4996 13.0509 12.5786 12.86 12.7194 12.7193C12.8601 12.5786 13.051 12.4995 13.25 12.4995C13.449 12.4995 13.6399 12.5786 13.7806 12.7193L20 18.9396L26.2194 12.7193C26.3601 12.5786 26.551 12.4995 26.75 12.4995C26.949 12.4995 27.1399 12.5786 27.2806 12.7193C27.4214 12.86 27.5004 13.0509 27.5004 13.2499C27.5004 13.449 27.4214 13.6398 27.2806 13.7806L21.0603 19.9999L27.2806 26.2193Z" fill="white"/>
</svg>
